<?xml version="1.0" encoding="utf-8" standalone="no"?>
<!DOCTYPE svg PUBLIC "-//W3C//DTD SVG 1.1//EN"
  "http://www.w3.org/Graphics/SVG/1.1/DTD/svg11.dtd">
<!-- Created with matplotlib (http://matplotlib.org/) -->
<svg height="345pt" version="1.1" viewBox="0 0 460 345" width="460pt" xmlns="http://www.w3.org/2000/svg" xmlns:xlink="http://www.w3.org/1999/xlink">
 <defs>
  <style type="text/css">
*{stroke-linecap:butt;stroke-linejoin:round;}
  </style>
 </defs>
 <g id="figure_1">
  <g id="patch_1">
   <path d="M 0 345.6 
L 460.8 345.6 
L 460.8 0 
L 0 0 
z
" style="fill:#ffffff;"/>
  </g>
  <g id="axes_1">
   <g id="patch_2">
    <path d="M 57.6 307.584 
L 414.72 307.584 
L 414.72 41.472 
L 57.6 41.472 
z
" style="fill:#ffffff;"/>
   </g>
   <g id="matplotlib.axis_1">
    <g id="xtick_1">
     <g id="line2d_1">
      <path clip-path="url(#p77cf12043f)" d="M 73.832727 307.584 
L 73.832727 41.472 
" style="fill:none;stroke:#b0b0b0;stroke-linecap:square;stroke-width:0.8;"/>
     </g>
     <g id="line2d_2">
      <defs>
       <path d="M 0 0 
L 0 3.5 
" id="m9c8ecc5775" style="stroke:#000000;stroke-width:0.8;"/>
      </defs>
      <g>
       <use style="stroke:#000000;stroke-width:0.8;" x="73.832727" xlink:href="#m9c8ecc5775" y="307.584"/>
      </g>
     </g>
     <g id="text_1">
      <!-- −10 -->
      <defs>
       <path d="M 10.59375 35.5 
L 73.1875 35.5 
L 73.1875 27.203125 
L 10.59375 27.203125 
z
" id="DejaVuSans-2212"/>
       <path d="M 12.40625 8.296875 
L 28.515625 8.296875 
L 28.515625 63.921875 
L 10.984375 60.40625 
L 10.984375 69.390625 
L 28.421875 72.90625 
L 38.28125 72.90625 
L 38.28125 8.296875 
L 54.390625 8.296875 
L 54.390625 0 
L 12.40625 0 
z
" id="DejaVuSans-31"/>
       <path d="M 31.78125 66.40625 
Q 24.171875 66.40625 20.328125 58.90625 
Q 16.5 51.421875 16.5 36.375 
Q 16.5 21.390625 20.328125 13.890625 
Q 24.171875 6.390625 31.78125 6.390625 
Q 39.453125 6.390625 43.28125 13.890625 
Q 47.125 21.390625 47.125 36.375 
Q 47.125 51.421875 43.28125 58.90625 
Q 39.453125 66.40625 31.78125 66.40625 
z
M 31.78125 74.21875 
Q 44.046875 74.21875 50.515625 64.515625 
Q 56.984375 54.828125 56.984375 36.375 
Q 56.984375 17.96875 50.515625 8.265625 
Q 44.046875 -1.421875 31.78125 -1.421875 
Q 19.53125 -1.421875 13.0625 8.265625 
Q 6.59375 17.96875 6.59375 36.375 
Q 6.59375 54.828125 13.0625 64.515625 
Q 19.53125 74.21875 31.78125 74.21875 
z
" id="DejaVuSans-30"/>
      </defs>
      <g transform="translate(63.280384 322.182437)scale(0.1 -0.1)">
       <use xlink:href="#DejaVuSans-2212"/>
       <use x="83.789062" xlink:href="#DejaVuSans-31"/>
       <use x="147.412109" xlink:href="#DejaVuSans-30"/>
      </g>
     </g>
    </g>
    <g id="xtick_2">
     <g id="line2d_3">
      <path clip-path="url(#p77cf12043f)" d="M 236.16 307.584 
L 236.16 41.472 
" style="fill:none;stroke:#b0b0b0;stroke-linecap:square;stroke-width:0.8;"/>
     </g>
     <g id="line2d_4">
      <g>
       <use style="stroke:#000000;stroke-width:0.8;" x="236.16" xlink:href="#m9c8ecc5775" y="307.584"/>
      </g>
     </g>
     <g id="text_2">
      <!-- 0 -->
      <g transform="translate(232.97875 322.182437)scale(0.1 -0.1)">
       <use xlink:href="#DejaVuSans-30"/>
      </g>
     </g>
    </g>
    <g id="xtick_3">
     <g id="line2d_5">
      <path clip-path="url(#p77cf12043f)" d="M 398.487273 307.584 
L 398.487273 41.472 
" style="fill:none;stroke:#b0b0b0;stroke-linecap:square;stroke-width:0.8;"/>
     </g>
     <g id="line2d_6">
      <g>
       <use style="stroke:#000000;stroke-width:0.8;" x="398.487273" xlink:href="#m9c8ecc5775" y="307.584"/>
      </g>
     </g>
     <g id="text_3">
      <!-- 10 -->
      <g transform="translate(392.124773 322.182437)scale(0.1 -0.1)">
       <use xlink:href="#DejaVuSans-31"/>
       <use x="63.623047" xlink:href="#DejaVuSans-30"/>
      </g>
     </g>
    </g>
   </g>
   <g id="matplotlib.axis_2">
    <g id="ytick_1">
     <g id="line2d_7">
      <path clip-path="url(#p77cf12043f)" d="M 57.6 241.056 
L 414.72 241.056 
" style="fill:none;stroke:#b0b0b0;stroke-linecap:square;stroke-width:0.8;"/>
     </g>
     <g id="line2d_8">
      <defs>
       <path d="M 0 0 
L -3.5 0 
" id="m3c867fb076" style="stroke:#000000;stroke-width:0.8;"/>
      </defs>
      <g>
       <use style="stroke:#000000;stroke-width:0.8;" x="57.6" xlink:href="#m3c867fb076" y="241.056"/>
      </g>
     </g>
     <g id="text_4">
      <!-- −1 -->
      <g transform="translate(35.857813 244.855219)scale(0.1 -0.1)">
       <use xlink:href="#DejaVuSans-2212"/>
       <use x="83.789062" xlink:href="#DejaVuSans-31"/>
      </g>
     </g>
    </g>
    <g id="ytick_2">
     <g id="line2d_9">
      <path clip-path="url(#p77cf12043f)" d="M 57.6 174.528 
L 414.72 174.528 
" style="fill:none;stroke:#b0b0b0;stroke-linecap:square;stroke-width:0.8;"/>
     </g>
     <g id="line2d_10">
      <g>
       <use style="stroke:#000000;stroke-width:0.8;" x="57.6" xlink:href="#m3c867fb076" y="174.528"/>
      </g>
     </g>
     <g id="text_5">
      <!-- 0 -->
      <g transform="translate(44.2375 178.327219)scale(0.1 -0.1)">
       <use xlink:href="#DejaVuSans-30"/>
      </g>
     </g>
    </g>
    <g id="ytick_3">
     <g id="line2d_11">
      <path clip-path="url(#p77cf12043f)" d="M 57.6 108 
L 414.72 108 
" style="fill:none;stroke:#b0b0b0;stroke-linecap:square;stroke-width:0.8;"/>
     </g>
     <g id="line2d_12">
      <g>
       <use style="stroke:#000000;stroke-width:0.8;" x="57.6" xlink:href="#m3c867fb076" y="108"/>
      </g>
     </g>
     <g id="text_6">
      <!-- 1 -->
      <g transform="translate(44.2375 111.799219)scale(0.1 -0.1)">
       <use xlink:href="#DejaVuSans-31"/>
      </g>
     </g>
    </g>
   </g>
   <g id="line2d_13">
    <path clip-path="url(#p77cf12043f)" d="M 73.832727 138.335364 
L 76.432563 147.700813 
L 79.682359 160.343413 
L 91.056642 205.59328 
L 93.656478 214.577629 
L 95.931335 221.605253 
L 97.881212 226.899006 
L 99.50611 230.736843 
L 101.131007 234.011937 
L 102.430925 236.204603 
L 103.730844 238.00196 
L 105.030762 239.392487 
L 106.0057 240.16294 
L 106.980639 240.696704 
L 107.955577 240.991856 
L 108.930516 241.047331 
L 109.905455 240.862928 
L 110.880393 240.439314 
L 111.855332 239.778015 
L 112.83027 238.881416 
L 114.130188 237.325638 
L 115.430106 235.367365 
L 116.730025 233.019149 
L 118.354922 229.55868 
L 119.97982 225.547262 
L 121.929697 220.06322 
L 123.879574 213.922947 
L 126.154431 206.048415 
L 129.079247 195.038951 
L 132.979001 179.391581 
L 139.803571 151.88768 
L 142.728387 141.043535 
L 145.003243 133.341897 
L 147.2781 126.447801 
L 149.227977 121.284263 
L 150.852875 117.56463 
L 152.477772 114.415296 
L 153.77769 112.327832 
L 155.077609 110.639033 
L 156.377527 109.359724 
L 157.352465 108.674002 
L 158.327404 108.225759 
L 159.302342 108.016609 
L 160.277281 108.047308 
L 161.252219 108.317745 
L 162.227158 108.826944 
L 163.202097 109.57307 
L 164.177035 110.553431 
L 165.476953 112.218716 
L 166.776871 114.283365 
L 168.07679 116.734146 
L 169.701687 120.316461 
L 171.326585 124.441525 
L 173.276462 130.049521 
L 175.551319 137.396138 
L 178.151155 146.674684 
L 181.40095 159.245787 
L 187.575561 184.377695 
L 191.475315 199.749774 
L 194.400131 210.373738 
L 196.674988 217.850813 
L 198.624865 223.588774 
L 200.574742 228.619696 
L 202.19964 232.219393 
L 203.824537 235.241502 
L 205.124455 237.222793 
L 206.424373 238.802248 
L 207.724292 239.969744 
L 208.69923 240.570416 
L 209.674169 240.93293 
L 210.649107 241.05598 
L 211.624046 240.939122 
L 212.598984 240.582776 
L 213.573923 239.988229 
L 214.548862 239.157624 
L 215.84878 237.688248 
L 217.148698 235.814053 
L 218.448616 233.547051 
L 220.073514 230.183283 
L 221.698411 226.262313 
L 223.648288 220.877284 
L 225.598165 214.824292 
L 227.873022 207.035093 
L 230.797838 196.106724 
L 234.697592 180.513409 
L 241.847142 151.693801 
L 244.771957 140.86543 
L 247.046814 133.180081 
L 249.321671 126.305446 
L 251.271548 121.160826 
L 252.896446 117.45833 
L 254.521343 114.327197 
L 255.821261 112.254938 
L 257.121179 110.581812 
L 258.421097 109.318541 
L 259.396036 108.645027 
L 260.370975 108.209096 
L 261.345913 108.012319 
L 262.320852 108.055406 
L 263.29579 108.338202 
L 264.270729 108.859686 
L 265.245667 109.617979 
L 266.220606 110.610346 
L 267.520524 112.29131 
L 268.820442 114.371175 
L 270.12036 116.836607 
L 271.745258 120.436304 
L 273.370156 124.577549 
L 275.320033 130.203151 
L 277.594889 137.567495 
L 280.194726 146.862168 
L 283.444521 159.446646 
L 290.269091 187.206105 
L 293.843866 201.166273 
L 296.443702 210.547361 
L 298.718559 218.007169 
L 300.668436 223.727876 
L 302.618313 228.739539 
L 304.24321 232.321854 
L 305.868108 235.325557 
L 307.168026 237.291507 
L 308.467944 238.855181 
L 309.767862 240.006557 
L 310.742801 240.594978 
L 311.71774 240.945153 
L 312.692678 241.05582 
L 313.667617 240.926579 
L 314.642555 240.557896 
L 315.617494 239.951101 
L 316.592432 239.108382 
L 317.892351 237.623138 
L 319.192269 235.733492 
L 320.492187 233.451556 
L 322.117084 230.069991 
L 323.741982 226.132359 
L 325.691859 220.729066 
L 327.641736 214.659947 
L 329.916593 206.854939 
L 332.841409 195.911472 
L 336.741163 180.307916 
L 343.890713 151.500142 
L 346.815528 140.687648 
L 349.090385 133.018662 
L 351.040262 127.087742 
L 352.990139 121.840508 
L 354.615037 118.044951 
L 356.239934 114.814883 
L 357.539853 112.659911 
L 358.839771 110.901477 
L 360.139689 109.550849 
L 361.114627 108.81081 
L 362.089566 108.307755 
L 363.064505 108.043499 
L 364.039443 108.018994 
L 365.014382 108.234329 
L 365.98932 108.688727 
L 366.964259 109.380551 
L 367.939197 110.307304 
L 369.239115 111.902525 
L 370.539034 113.899137 
L 371.838952 116.284343 
L 373.463849 119.788792 
L 375.088747 123.841271 
L 377.038624 129.370159 
L 378.988501 135.54984 
L 381.263358 143.46272 
L 384.188174 154.508292 
L 388.412907 171.508761 
L 394.587518 196.399212 
L 397.512334 207.304736 
L 398.487273 210.720636 
L 398.487273 210.720636 
" style="fill:none;stroke:#ff0000;stroke-linecap:square;stroke-width:1.5;"/>
   </g>
   <g id="line2d_14">
    <path clip-path="url(#p77cf12043f)" d="M 73.832727 230.349751 
L 75.457625 233.687156 
L 76.757543 235.932044 
L 78.057461 237.783369 
L 79.357379 239.229266 
L 80.332318 240.041952 
L 81.307256 240.618386 
L 82.282195 240.95649 
L 83.257133 241.055045 
L 84.232072 240.913694 
L 85.207011 240.532949 
L 86.181949 239.914181 
L 87.156888 239.059622 
L 88.456806 237.558872 
L 89.756724 235.654132 
L 91.056642 233.357611 
L 92.68154 229.958673 
L 94.306437 226.004781 
L 96.256314 220.583677 
L 98.206192 214.49884 
L 100.481048 206.678446 
L 103.405864 195.720314 
L 107.305618 180.106886 
L 114.455168 151.310954 
L 117.379984 140.51409 
L 119.65484 132.861178 
L 121.604717 126.946507 
L 123.554595 121.717557 
L 125.179492 117.938602 
L 126.80439 114.726202 
L 128.104308 112.586012 
L 129.404226 110.842833 
L 130.704144 109.507837 
L 131.679083 108.779707 
L 132.654021 108.288675 
L 133.62896 108.036509 
L 134.603898 108.024121 
L 135.578837 108.251554 
L 136.553776 108.717988 
L 137.528714 109.421741 
L 138.503653 110.360276 
L 139.803571 111.9709 
L 141.103489 113.982478 
L 142.403407 116.382116 
L 144.028305 119.903714 
L 145.653202 123.972191 
L 147.603079 129.518533 
L 149.877936 136.802948 
L 152.477772 146.024708 
L 155.402588 157.258744 
L 160.277281 177.036463 
L 165.151974 196.589663 
L 168.07679 207.480165 
L 170.676626 216.275187 
L 172.626503 222.181529 
L 174.57638 227.401113 
L 176.201278 231.171566 
L 177.826175 234.374923 
L 179.126093 236.507548 
L 180.426011 238.242922 
L 181.72593 239.569922 
L 182.700868 240.29196 
L 183.675807 240.776845 
L 184.650745 241.022828 
L 185.625684 241.029022 
L 186.600622 240.795405 
L 187.575561 240.32282 
L 188.5505 239.61297 
L 189.525438 238.668415 
L 190.825356 237.049921 
L 192.125274 235.030699 
L 193.425192 232.623691 
L 195.05009 229.09334 
L 196.674988 225.016698 
L 198.624865 219.461453 
L 200.899722 212.168044 
L 203.499558 202.938053 
L 206.424373 191.69762 
L 211.299066 171.916463 
L 216.173759 152.36905 
L 219.098575 141.486266 
L 221.373432 133.744584 
L 223.648288 126.802549 
L 225.598165 121.592345 
L 227.223063 117.830402 
L 228.847961 114.636096 
L 230.147879 112.511041 
L 231.447797 110.783477 
L 232.747715 109.464476 
L 233.722654 108.748531 
L 234.697592 108.269796 
L 235.672531 108.029995 
L 236.647469 108.029995 
L 237.622408 108.269796 
L 238.597346 108.748531 
L 239.572285 109.464476 
L 240.547224 110.415048 
L 241.847142 112.041408 
L 243.14706 114.06827 
L 244.446978 116.482641 
L 246.071876 120.021738 
L 247.696773 124.106534 
L 249.64665 129.670669 
L 251.921507 136.973055 
L 254.521343 146.211253 
L 257.446159 157.458057 
L 262.320852 177.242605 
L 267.195545 196.784184 
L 270.12036 207.659224 
L 272.395217 215.392862 
L 274.670074 222.325257 
L 276.619951 227.526071 
L 278.244848 231.279494 
L 279.869746 234.464741 
L 281.169664 236.582221 
L 282.469582 238.301972 
L 283.7695 239.61297 
L 284.744439 240.32282 
L 285.719378 240.795405 
L 286.694316 241.029022 
L 287.669255 241.022828 
L 288.644193 240.776845 
L 289.619132 240.29196 
L 290.59407 239.569922 
L 291.569009 238.613334 
L 292.868927 236.979112 
L 294.168845 234.944617 
L 295.468763 232.522887 
L 297.093661 228.975053 
L 298.718559 224.882113 
L 300.668436 219.309101 
L 302.943292 211.997755 
L 305.543129 202.751372 
L 308.792924 190.207079 
L 314.642555 166.402263 
L 318.867289 149.684304 
L 321.792105 139.026703 
L 324.066962 131.515687 
L 326.016839 125.743759 
L 327.966716 120.674886 
L 329.591613 117.040911 
L 331.216511 113.982478 
L 332.516429 111.9709 
L 333.816347 110.360276 
L 335.116265 109.160927 
L 336.091204 108.53604 
L 337.066143 108.149129 
L 338.041081 108.001588 
L 339.01602 108.09395 
L 339.990958 108.425881 
L 340.965897 108.996185 
L 341.940835 109.802805 
L 343.240753 111.240753 
L 344.540672 113.084333 
L 345.84059 115.321729 
L 347.465487 118.6502 
L 349.090385 122.538101 
L 351.040262 127.886852 
L 352.990139 133.907772 
L 355.264996 141.665483 
L 357.864832 151.310954 
L 361.439607 165.490662 
L 369.889075 199.467355 
L 372.81389 210.116491 
L 375.088747 217.618954 
L 377.038624 223.382316 
L 378.988501 228.441614 
L 380.613399 232.066937 
L 382.238296 235.116199 
L 383.538215 237.120128 
L 384.838133 238.722879 
L 386.138051 239.914181 
L 387.112989 240.532949 
L 388.087928 240.913694 
L 389.062867 241.055045 
L 390.037805 240.95649 
L 391.012744 240.618386 
L 391.987682 240.041952 
L 392.962621 239.229266 
L 394.262539 237.783369 
L 395.562457 235.932044 
L 396.862375 233.687156 
L 398.487273 230.349751 
L 398.487273 230.349751 
" style="fill:none;stroke:#008000;stroke-dasharray:5.55,2.4;stroke-dashoffset:0;stroke-width:1.5;"/>
   </g>
   <g id="patch_3">
    <path d="M 57.6 307.584 
L 57.6 41.472 
" style="fill:none;stroke:#000000;stroke-linecap:square;stroke-linejoin:miter;stroke-width:0.8;"/>
   </g>
   <g id="patch_4">
    <path d="M 414.72 307.584 
L 414.72 41.472 
" style="fill:none;stroke:#000000;stroke-linecap:square;stroke-linejoin:miter;stroke-width:0.8;"/>
   </g>
   <g id="patch_5">
    <path d="M 57.6 307.584 
L 414.72 307.584 
" style="fill:none;stroke:#000000;stroke-linecap:square;stroke-linejoin:miter;stroke-width:0.8;"/>
   </g>
   <g id="patch_6">
    <path d="M 57.6 41.472 
L 414.72 41.472 
" style="fill:none;stroke:#000000;stroke-linecap:square;stroke-linejoin:miter;stroke-width:0.8;"/>
   </g>
   <g id="legend_1">
    <g id="patch_7">
     <path d="M 336.746563 78.82825 
L 407.72 78.82825 
Q 409.72 78.82825 409.72 76.82825 
L 409.72 48.472 
Q 409.72 46.472 407.72 46.472 
L 336.746563 46.472 
Q 334.746563 46.472 334.746563 48.472 
L 334.746563 76.82825 
Q 334.746563 78.82825 336.746563 78.82825 
z
" style="fill:#ffffff;opacity:0.8;stroke:#cccccc;stroke-linejoin:miter;"/>
    </g>
    <g id="line2d_15">
     <path d="M 338.746563 54.570437 
L 358.746563 54.570437 
" style="fill:none;stroke:#ff0000;stroke-linecap:square;stroke-width:1.5;"/>
    </g>
    <g id="line2d_16"/>
    <g id="text_7">
     <!-- Sinus -->
     <defs>
      <path d="M 53.515625 70.515625 
L 53.515625 60.890625 
Q 47.90625 63.578125 42.921875 64.890625 
Q 37.9375 66.21875 33.296875 66.21875 
Q 25.25 66.21875 20.875 63.09375 
Q 16.5 59.96875 16.5 54.203125 
Q 16.5 49.359375 19.40625 46.890625 
Q 22.3125 44.4375 30.421875 42.921875 
L 36.375 41.703125 
Q 47.40625 39.59375 52.65625 34.296875 
Q 57.90625 29 57.90625 20.125 
Q 57.90625 9.515625 50.796875 4.046875 
Q 43.703125 -1.421875 29.984375 -1.421875 
Q 24.8125 -1.421875 18.96875 -0.25 
Q 13.140625 0.921875 6.890625 3.21875 
L 6.890625 13.375 
Q 12.890625 10.015625 18.65625 8.296875 
Q 24.421875 6.59375 29.984375 6.59375 
Q 38.421875 6.59375 43.015625 9.90625 
Q 47.609375 13.234375 47.609375 19.390625 
Q 47.609375 24.75 44.3125 27.78125 
Q 41.015625 30.8125 33.5 32.328125 
L 27.484375 33.5 
Q 16.453125 35.6875 11.515625 40.375 
Q 6.59375 45.0625 6.59375 53.421875 
Q 6.59375 63.09375 13.40625 68.65625 
Q 20.21875 74.21875 32.171875 74.21875 
Q 37.3125 74.21875 42.625 73.28125 
Q 47.953125 72.359375 53.515625 70.515625 
z
" id="DejaVuSans-53"/>
      <path d="M 9.421875 54.6875 
L 18.40625 54.6875 
L 18.40625 0 
L 9.421875 0 
z
M 9.421875 75.984375 
L 18.40625 75.984375 
L 18.40625 64.59375 
L 9.421875 64.59375 
z
" id="DejaVuSans-69"/>
      <path d="M 54.890625 33.015625 
L 54.890625 0 
L 45.90625 0 
L 45.90625 32.71875 
Q 45.90625 40.484375 42.875 44.328125 
Q 39.84375 48.1875 33.796875 48.1875 
Q 26.515625 48.1875 22.3125 43.546875 
Q 18.109375 38.921875 18.109375 30.90625 
L 18.109375 0 
L 9.078125 0 
L 9.078125 54.6875 
L 18.109375 54.6875 
L 18.109375 46.1875 
Q 21.34375 51.125 25.703125 53.5625 
Q 30.078125 56 35.796875 56 
Q 45.21875 56 50.046875 50.171875 
Q 54.890625 44.34375 54.890625 33.015625 
z
" id="DejaVuSans-6e"/>
      <path d="M 8.5 21.578125 
L 8.5 54.6875 
L 17.484375 54.6875 
L 17.484375 21.921875 
Q 17.484375 14.15625 20.5 10.265625 
Q 23.53125 6.390625 29.59375 6.390625 
Q 36.859375 6.390625 41.078125 11.03125 
Q 45.3125 15.671875 45.3125 23.6875 
L 45.3125 54.6875 
L 54.296875 54.6875 
L 54.296875 0 
L 45.3125 0 
L 45.3125 8.40625 
Q 42.046875 3.421875 37.71875 1 
Q 33.40625 -1.421875 27.6875 -1.421875 
Q 18.265625 -1.421875 13.375 4.4375 
Q 8.5 10.296875 8.5 21.578125 
z
M 31.109375 56 
z
" id="DejaVuSans-75"/>
      <path d="M 44.28125 53.078125 
L 44.28125 44.578125 
Q 40.484375 46.53125 36.375 47.5 
Q 32.28125 48.484375 27.875 48.484375 
Q 21.1875 48.484375 17.84375 46.4375 
Q 14.5 44.390625 14.5 40.28125 
Q 14.5 37.15625 16.890625 35.375 
Q 19.28125 33.59375 26.515625 31.984375 
L 29.59375 31.296875 
Q 39.15625 29.25 43.1875 25.515625 
Q 47.21875 21.78125 47.21875 15.09375 
Q 47.21875 7.46875 41.1875 3.015625 
Q 35.15625 -1.421875 24.609375 -1.421875 
Q 20.21875 -1.421875 15.453125 -0.5625 
Q 10.6875 0.296875 5.421875 2 
L 5.421875 11.28125 
Q 10.40625 8.6875 15.234375 7.390625 
Q 20.0625 6.109375 24.8125 6.109375 
Q 31.15625 6.109375 34.5625 8.28125 
Q 37.984375 10.453125 37.984375 14.40625 
Q 37.984375 18.0625 35.515625 20.015625 
Q 33.0625 21.96875 24.703125 23.78125 
L 21.578125 24.515625 
Q 13.234375 26.265625 9.515625 29.90625 
Q 5.8125 33.546875 5.8125 39.890625 
Q 5.8125 47.609375 11.28125 51.796875 
Q 16.75 56 26.8125 56 
Q 31.78125 56 36.171875 55.265625 
Q 40.578125 54.546875 44.28125 53.078125 
z
" id="DejaVuSans-73"/>
     </defs>
     <g transform="translate(366.746563 58.070437)scale(0.1 -0.1)">
      <use xlink:href="#DejaVuSans-53"/>
      <use x="63.476562" xlink:href="#DejaVuSans-69"/>
      <use x="91.259766" xlink:href="#DejaVuSans-6e"/>
      <use x="154.638672" xlink:href="#DejaVuSans-75"/>
      <use x="218.017578" xlink:href="#DejaVuSans-73"/>
     </g>
    </g>
    <g id="line2d_17">
     <path d="M 338.746563 69.248562 
L 358.746563 69.248562 
" style="fill:none;stroke:#008000;stroke-dasharray:5.55,2.4;stroke-dashoffset:0;stroke-width:1.5;"/>
    </g>
    <g id="line2d_18"/>
    <g id="text_8">
     <!-- Cosinus -->
     <defs>
      <path d="M 64.40625 67.28125 
L 64.40625 56.890625 
Q 59.421875 61.53125 53.78125 63.8125 
Q 48.140625 66.109375 41.796875 66.109375 
Q 29.296875 66.109375 22.65625 58.46875 
Q 16.015625 50.828125 16.015625 36.375 
Q 16.015625 21.96875 22.65625 14.328125 
Q 29.296875 6.6875 41.796875 6.6875 
Q 48.140625 6.6875 53.78125 8.984375 
Q 59.421875 11.28125 64.40625 15.921875 
L 64.40625 5.609375 
Q 59.234375 2.09375 53.4375 0.328125 
Q 47.65625 -1.421875 41.21875 -1.421875 
Q 24.65625 -1.421875 15.125 8.703125 
Q 5.609375 18.84375 5.609375 36.375 
Q 5.609375 53.953125 15.125 64.078125 
Q 24.65625 74.21875 41.21875 74.21875 
Q 47.75 74.21875 53.53125 72.484375 
Q 59.328125 70.75 64.40625 67.28125 
z
" id="DejaVuSans-43"/>
      <path d="M 30.609375 48.390625 
Q 23.390625 48.390625 19.1875 42.75 
Q 14.984375 37.109375 14.984375 27.296875 
Q 14.984375 17.484375 19.15625 11.84375 
Q 23.34375 6.203125 30.609375 6.203125 
Q 37.796875 6.203125 41.984375 11.859375 
Q 46.1875 17.53125 46.1875 27.296875 
Q 46.1875 37.015625 41.984375 42.703125 
Q 37.796875 48.390625 30.609375 48.390625 
z
M 30.609375 56 
Q 42.328125 56 49.015625 48.375 
Q 55.71875 40.765625 55.71875 27.296875 
Q 55.71875 13.875 49.015625 6.21875 
Q 42.328125 -1.421875 30.609375 -1.421875 
Q 18.84375 -1.421875 12.171875 6.21875 
Q 5.515625 13.875 5.515625 27.296875 
Q 5.515625 40.765625 12.171875 48.375 
Q 18.84375 56 30.609375 56 
z
" id="DejaVuSans-6f"/>
     </defs>
     <g transform="translate(366.746563 72.748562)scale(0.1 -0.1)">
      <use xlink:href="#DejaVuSans-43"/>
      <use x="69.824219" xlink:href="#DejaVuSans-6f"/>
      <use x="131.005859" xlink:href="#DejaVuSans-73"/>
      <use x="183.105469" xlink:href="#DejaVuSans-69"/>
      <use x="210.888672" xlink:href="#DejaVuSans-6e"/>
      <use x="274.267578" xlink:href="#DejaVuSans-75"/>
      <use x="337.646484" xlink:href="#DejaVuSans-73"/>
     </g>
    </g>
   </g>
  </g>
 </g>
 <defs>
  <clipPath id="p77cf12043f">
   <rect height="266.112" width="357.12" x="57.6" y="41.472"/>
  </clipPath>
 </defs>
</svg>
